<svg width="128" height="128" viewBox="0 0 128 128" xmlns="http://www.w3.org/2000/svg">
  <!-- Mouse body -->
  <path d="M40 24 C28 24 20 32 20 44 L20 84 C20 96 28 104 40 104 L88 104 C100 104 108 96 108 84 L108 44 C108 32 100 24 88 24 Z" 
        fill="none" 
        stroke="white" 
        stroke-width="4"/>
  
  <!-- Middle divider line -->
  <line x1="64" y1="24" x2="64" y2="56" stroke="white" stroke-width="4"/>
  
  <!-- Left button highlight (pressed state) -->
  <path d="M64 24 C40 24 40 24 40 24 C28 24 20 32 20 44 L20 56 L64 56 Z" 
        fill="white" 
        opacity="0.3"/>
  
  <!-- Click indicator - small radiating lines -->
  <g stroke="white" stroke-width="3" opacity="0.8">
    <line x1="36" y1="36" x2="28" y2="28"/>
    <line x1="28" y1="40" x2="20" y2="40"/>
    <line x1="36" y1="44" x2="28" y2="52"/>
  </g>
</svg>